<?xml version="1.0" encoding="UTF-8" standalone="no"?>
<!DOCTYPE svg PUBLIC "-//W3C//DTD SVG 1.1//EN" "http://www.w3.org/Graphics/SVG/1.1/DTD/svg11.dtd">
<svg version="1.1" xmlns="http://www.w3.org/2000/svg" xmlns:xlink="http://www.w3.org/1999/xlink" preserveAspectRatio="xMidYMid meet" viewBox="-1.0020407031959166 -0.9981052165602478 644 628.2000000000002" width="640" height="624.2"><defs><path d="M320 0C143.29 0 0 143.26 0 320C0 461.38 91.69 581.33 218.83 623.65C234.83 626.61 240.7 616.71 240.7 608.25C240.7 600.63 240.4 575.42 240.26 548.68C151.24 568.03 132.45 510.92 132.45 510.92C117.9 473.94 96.92 464.1 96.92 464.1C67.89 444.24 99.11 444.64 99.11 444.64C131.25 446.9 148.17 477.63 148.17 477.63C176.71 526.54 223.03 512.4 241.29 504.22C244.16 483.55 252.45 469.42 261.6 461.43C190.53 453.35 115.81 425.9 115.81 303.29C115.81 268.35 128.31 239.8 148.78 217.39C145.46 209.33 134.5 176.79 151.89 132.71C151.89 132.71 178.76 124.11 239.9 165.51C265.43 158.42 292.8 154.87 320 154.74C347.19 154.87 374.59 158.42 400.16 165.51C461.24 124.11 488.07 132.71 488.07 132.71C505.49 176.79 494.54 209.33 491.22 217.39C511.73 239.8 524.14 268.35 524.14 303.29C524.14 426.2 449.28 453.26 378.03 461.18C389.51 471.11 399.73 490.58 399.73 520.44C399.73 563.25 399.37 597.71 399.37 608.25C399.37 616.78 405.12 626.75 421.34 623.61C548.42 581.25 640 461.34 640 320C640 143.26 496.73 0 320 0" id="cGNCWDZhZ"></path></defs><g><g><use xlink:href="#cGNCWDZhZ" opacity="1" fill="#FFFFFF" fill-opacity="1"></use><g><use xlink:href="#cGNCWDZhZ" opacity="1" fill-opacity="0" stroke="#000000" stroke-width="1" stroke-opacity="0"></use></g></g></g></svg>